/* XPM */
static char *_588238536218[] = {
/* columns rows colors chars-per-pixel */
"64 64 229 2 ",
"   c #000015",
".  c #00011D",
"X  c #000224",
"o  c #01022B",
"O  c #01092B",
"+  c #010234",
"@  c #030B35",
"#  c #00023C",
"$  c #030A3D",
"%  c #09093A",
"&  c #011333",
"*  c #021D3C",
"=  c #02153A",
"-  c #101636",
";  c #02213F",
":  c #0B213F",
">  c #1F2632",
",  c #7B561B",
"<  c #594134",
"1  c #74562C",
"2  c #000145",
"3  c #000E43",
"4  c #090C41",
"5  c #00014C",
"6  c #010A4A",
"7  c #090F48",
"8  c #021344",
"9  c #031E40",
"0  c #00124A",
"q  c #0D134D",
"w  c #001B4B",
"e  c #0B1748",
"r  c #000153",
"t  c #020C53",
"y  c #00015C",
"u  c #000A59",
"i  c #001A52",
"p  c #0E1B53",
"a  c #00145D",
"s  c #031B5C",
"d  c #091456",
"f  c #111C59",
"g  c #101452",
"h  c #161849",
"j  c #042144",
"k  c #06234A",
"l  c #08254E",
"z  c #082A4E",
"x  c #1B2549",
"c  c #042553",
"v  c #082652",
"b  c #092956",
"n  c #0B2B5B",
"m  c #062858",
"M  c #172858",
"N  c #113354",
"B  c #353C5A",
"V  c #33334B",
"C  c #000264",
"Z  c #000B63",
"A  c #00026B",
"S  c #000C6B",
"D  c #021C64",
"F  c #011D6D",
"G  c #091563",
"H  c #141B60",
"J  c #000273",
"K  c #00017C",
"L  c #000A7C",
"P  c #000D72",
"I  c #00167D",
"U  c #001B76",
"Y  c #0E2D62",
"T  c #072566",
"R  c #102E66",
"E  c #132967",
"W  c #0E3165",
"Q  c #0E3269",
"!  c #0C3A67",
"~  c #11326B",
"^  c #123469",
"/  c #052677",
"(  c #173777",
")  c #133178",
"_  c #293966",
"`  c #273870",
"'  c #2E405B",
"]  c #09496A",
"[  c #0C4B75",
"{  c #0D517A",
"}  c #0A5476",
"|  c #144072",
" . c #2B4478",
".. c #354775",
"X. c #3A4E72",
"o. c #50555C",
"O. c #605C40",
"+. c #5F6757",
"@. c #737255",
"#. c #4E586B",
"$. c #424D74",
"%. c #4A5579",
"&. c #535B72",
"*. c #566568",
"=. c #556572",
"-. c #4A7069",
";. c #6A7569",
":. c #727C66",
">. c #62687E",
",. c #807B54",
"<. c #7B8567",
"1. c #75A379",
"2. c #BC9A3E",
"3. c #CC9C1D",
"4. c #EBB015",
"5. c #F5D433",
"6. c #FFE82F",
"7. c #FFFC28",
"8. c #FFED3D",
"9. c #FFE534",
"0. c #FFF33B",
"q. c #FFF834",
"w. c #888A5B",
"e. c #969156",
"r. c #AAA859",
"t. c #B2AC56",
"y. c #BCB355",
"u. c #949561",
"i. c #8A8F65",
"p. c #A2934B",
"a. c #CABB4B",
"s. c #D5C548",
"d. c #CBC558",
"f. c #CFC44D",
"g. c #EED849",
"h. c #FCDA48",
"j. c #EAD757",
"k. c #F5D855",
"l. c #E7CF4F",
"z. c #FFED43",
"x. c #FEE749",
"c. c #FFF542",
"v. c #FFFB4D",
"b. c #FFF748",
"n. c #FDE754",
"m. c #FFFD54",
"M. c #FFFE5D",
"N. c #FFF358",
"B. c #000B85",
"V. c #001789",
"C. c #032484",
"Z. c #1E3C84",
"A. c #0D3587",
"S. c #283E80",
"D. c #154A83",
"F. c #0D5784",
"G. c #13568B",
"H. c #12578B",
"J. c #0E5595",
"K. c #354986",
"L. c #116896",
"P. c #0F628D",
"I. c #0058A7",
"U. c #1479A5",
"Y. c #0573B1",
"T. c #47588A",
"R. c #555E88",
"E. c #485A93",
"W. c #576388",
"Q. c #5B6B99",
"!. c #676A87",
"~. c #6B7699",
"^. c #5768A0",
"/. c #657AA9",
"(. c #1583AD",
"). c #1586B5",
"_. c #1493BB",
"`. c #7A829F",
"'. c #7584A8",
"]. c #788BB2",
"[. c #7E90B7",
"{. c #1697C4",
"}. c #149DC7",
"|. c #0B92D0",
" X c #16A1CB",
".X c #17ACD5",
"XX c #17AFD8",
"oX c #17B2DB",
"OX c #18B7DF",
"+X c #009DEE",
"@X c #18BCE3",
"#X c #18BCE3",
"$X c #00B6F8",
"%X c #19C4EB",
"&X c #19CBEE",
"*X c #18C5E8",
"=X c #1AC7F0",
"-X c #19CDF3",
";X c #19D0F6",
":X c #1BD3FB",
">X c #1DDCFF",
",X c #1DE6FF",
"<X c #83859E",
"1X c #90909F",
"2X c #8A99BB",
"3X c #939CB7",
"4X c #8C97AA",
"5X c #99A0B9",
"6X c #A8AABA",
"7X c #9AA4C2",
"8X c #A3ABC7",
"9X c #AAB3CC",
"0X c #B5B8C9",
"qX c #B3BAD0",
"wX c #BAC1D4",
"eX c #CBCDDA",
"rX c #C3C7D9",
"tX c #CED1DD",
"yX c #D3D3DF",
"uX c #C5C4CB",
"iX c #D9DAE5",
"pX c #DEE2EC",
"aX c #DEE3F0",
"sX c #E6E6EC",
"dX c #E9EBF1",
"fX c #F5F6F9",
"gX c #FFFFFF",
"hX c #F3F4F6",
"jX c #EFF2F6",
/* pixels */
"* * * * * * & * * * & * * * * * * * * * * 9 * * 9 * j ; j 9 j ; j ; 9 j 9 * ; * * * j * 9 * * ; * * * * ; * * ; * & * * & * * * ",
"* * * * * * * * * * * * * * * * 9 * * j 9 * ; ; j j j j j 9 j j j j j k j j j j j * * * * 9 9 * * * * * & * * & ; ; * * * * * * ",
"; & & * & * * & * * * * * * * * * 9 9 9 j j j j j j j j 9 k j j j 9 j 9 9 9 j j j j j j j * * * * * * * * * * : O . ; ; & * & * ",
"* * * * * * * * & * * * * ; * * * 9 j j j j j j j j j j j k k j j k k 9 k k j j j j j j j j j * : * * * ; ; &   & } ; * * * * * ",
"* * & ; * * * * * * ; : * ; * : 9 j j 9 k 9 j k k k k k k k k k k k k k k k j k j k 9 j j j j 9 * * * j =   X ] *X(.  & * & * * ",
"* * * ; * * * * * * ; ; ; ; ; ; 9 k j k k j k k k k k k k k k k k l k k l k k k k j k j k j j j j k * . O ] }.,X*X  & * * * * * ",
"* * & & * * * * * * ; ; ; ; : ; 9 9 k j k k k k k l l l l l l l l l l l l l k k k k k k j k 9 l * . O ]  X:X%X:X]   ; * * & * * ",
"& ; ; ; & * * * * * ; ; ; : ; ; k 9 k k k k k l l l l l l v v v v v l v l l l l l l k k k l 9 X O [ }.:X&X.X=X}.  * * * * * * * ",
"* & * * * * * * * ; 9 j j j j k k k k k l k l v l v v v v v v b v v v v v v v v v l l v 9 O @ [ }.:X=XXX.XXX;X]   ; * * & * * * ",
"* * * * * * : 9 * * j j j j k k k k k l l v v v b b b b m m b b b b m m b b v v v b l O @ {  X:X=X.X.XXX.X-X_.. ; ; * ; * * * * ",
"* * * * * * 9 * j j j j e k k k k l l v v v v b v b b b m n m n b b m n b b b n p % % {  X:X&X.XXXXX.X.X=X>XN O ; ; ; * * * * & ",
"* * * * ; * * * j j j j k k k k l v v v v b m m b b n b n n m m n n n n n n b % = F.}.:X%X.X.XXX.XoX=X;XXX{ O j : ; ; * * * * * ",
"* * * * j * j ; j j j k k k k z p v v b b m n m n b n n n Y n Y n n R n n 4 7 { }.;X%XXX.XXX.XOX;X=X{.} & X j j ; ; ; * * * * * ",
"& ; * ; * * j j j j j k k k l l v v v m b n b n n R Y Y Y Y Y Y R R n 4 q F. X:X%XXX.X.XXX@X:X@XU.! @ o * k k j ; ; : * * * * * ",
"* ; * ; * j j j j k k k l l v v v n b b n n n Y Y n Y R Y Y R R Y 7 g F. X;X%X.X.X.XoX&X;X.XL.n + # 2 N z k k ; : ; ; ; * ; * * ",
"* * * * j j j 9 j l k k l v v v n b n b Y n n Y Y Y R Y Y Q Y q p G. X;X%X.X.X.X@X=X%X{.H.e + 2 r V r.e.8 k k z ; ; ; ; ; * * & ",
"* * * ; j j j j k k k l v v v b m n n Y n n W Y Y R R Q R g p G. X-X%X.X.XXX@X:X#X(.| e 2 r u o.r.M.M.M 0 l k k j j j j * * ; * ",
"* * * : j j j j k k l l v v b n b n n n R R R R Q ^ E g f G. X-X%X.X.XoX%X=X.XL.R 7 r y Y ;.d.M.M.M.@.5 z k l k k j j j 9 * * * ",
"* * * j j j k k k k l v v b b b n n Y n R Y W ^ E g f G. X-X*XXX.XOX-X%X{.G.n t y S _ i.j.M.N.k.N.j.d i v l k k k k 9 j j * 9 * ",
"* ; * j j j j k k l v v b b n n n Y R R W Q R g f G. X-X%XXX.X#X-XOX).D.f u A F #.r.N.m.n.k.j.n.m.+.y b v v l k k j j j j j * 9 ",
"* ; j j j 9 k l l l v v b n n n n Y Y ~ Y q f G. X;X%X.XXX%X-X.XU.( f A L ~ ;.d.m.m.k.j.k.n.m.v.y.u v m b v l l k k j j j ; * * ",
"* * j j k k k k l v v b n m n n Y R Y q f G. X-X@X.XoX-X%X{.P.E d J I ..u.j.v.N.k.j.k.v.v.j.u.o.D m n b b v v l k k k j j j j * ",
"9 9 j j j k k k l v v b b n n W Y q p G. X-X%X.X@X-X@X).D.E Z L C.&.r.N.v.n.l.k.b.v.n.r.*.s r Z T n m n b v v l l k k j j j 9 * ",
"* j j 9 j k k l v v v b n n W q q F. X;X#XXX%X-X XU.( H P B.A.<.d.b.b.h.k.z.b.n.y.;.^ y r T 4XX.i Y n m m v v v k l l j j j j * ",
"* ; j j k k k l v v m m n n 4 ^ {.;X%XoX-X=X{.P.E H K V...u.g.b.x.h.x.c.z.a.<. .J y Z K.5XgXsXp m Y Y b b b v v l k k j j j j 9 ",
"j j j j j k k l v v n n p % L.=X=XoX-X@XU.{ H S B.C.=.y.z.c.x.h.c.z.f.i.X.I A A ` '.iXgXgXgX .6 E Y n n n b v v l l l j j j j * ",
"9 j j 9 k k l v v v n l % ).>XoX%X&XU.( g S B.( :.f.8.z.h.8.8.l.u.&.C.K A / Q.qXgXgXgXgXgX9X2 Q Y Y Y m n n v v l l k k j j j * ",
"9 k 9 k k k k l v v v % _.:XXX;X X| 6 A I X.u.g.c.8.8.8.g.r.=.A.B.J U E.3XsXgXgXgXgXgXgXgX^ d R Y Y Y n n v v v l l k j j j j j ",
"9 j 9 k k k l v v n + U.:XoX;X(.q C U *.t.8.0.0.8.h.t.;.Z.V.K P Z.].eXgXgXgXgXgXgXgXgXgX3X5 ) ~ E Y Y n n b b v l l k k k j j j ",
"j j 9 k k k l v m % [ :XoX;XU.2 A *.f.q.q.q.5.y.:. .V.K J C.^.9XgXgXgXgXgXgXgXgXgXgXgXfXE D ^ Q W Y Y Y n b b v v l k k j j j j ",
"; j j j k l l v v e XX%X-X(.2 G r.0.q.6.a.w...C.K A / K.2XaXgXgXgXgXgXgXgXgXgXgXgXgXgX[.r ( ~ R W Y Y n n n m v l l l k j j j ; ",
"9 j j k k k v v + H.;X%X X5 f s.7.6.a.#./ K A Z ( /.rXgXgXgXgXgXgXgXgXgXgXgXgXgXgXgXfXD T ^ ~ Q R Y Y n n b m v v l k k k 9 j j ",
"9 j 9 l k l l v e }.-X&X/ 6 s.7.9.,.I J y T E.8XfXgXgXgXgXgXgXgXgXgXgXgXgXgXgXgXgXiXK.D ( Q ) W Y Y Y n n b v v v v k k j j j ; ",
"j k 9 9 k k l = ! @X;XU.2 p.7.6.o.K r Y '.iXgXgXgXgXgXgXgXgXgXgXgXgXgXgXgXgXjX7XE.D D ( ) ) ~ R ~ Y Y Y n n b v v l k k k j j j ",
"j j j k k k l @ { -X*XF V q.6.o.J 5 T.sXgXgXgXgXgXgXgXgXgXgXgXgXgXgXgXgXwX/.F 5 r D T a t s Q ^ W Y n n n b m v v p k k k j j ; ",
"; j j j k k z % P.>X}.5 2.7.,.J 2 ~.gXgXgXgXgXgXgXgXgXgXgXgXgXgXgXpX2XZ.r r Z.].9XrXeXqX4XK.t 0 Q Y Y Y n m b v v l k k j j j * ",
"* j j k k k l @ P.,XY.- 6.5.D 5 !.gXgXgXgXgXgXgXgXgXgXgXgXgXgX9XE.C 5 F /.rXgXgXgXgXgXgXgXgX0X` 2 W Y n n b b v l l k k j 9 j 9 ",
"9 j j 9 k k l % { ,XI.< 7.@.r M gXgXgXgXgXgXgXgXgXgXgXgXeX/.F 5 C E.8XfXgXgXgXgXgXgXgXgXgXgXgXgX%.2 Q n m b v v l l k k k 9 j 9 ",
"9 j j k j k l 9 p -XY.1 7.B 2 3XgXgXgXgXgXgXgXgXgXsX2XS.5 5 ( [.iXgXgXgXgXgXgXgXgXgXgXgXgXgXgXgXgX_ 3 n n b v v l k k j j j j * ",
"9 9 j 9 k k k v + {.+X1 5.i s jXgXgXgXgXgXgXgXwXT.u 2 D /.qXgXgXgXgXgXgXgXgXgXgXgXgXgXgXgXgXgXgXgX8X# m b b b l l l l j j j j 9 ",
"* j j j j k k l e k $X-.4.6  .gXgXgXgXgXgXgXgXa + K.7XjXgXgXgXgXgXgXgXgXgXgXgXgXgXgXgXgXgXgXgXgXgXgXn w b b v l l k k j w j ; ; ",
"* 9 j j j k k k b O F.|.3.> K.gXgXgXgXgXgXgXgXrXrXgXgXgXgXgXgXgXgXgXgXgXgXgXgXgXgXgXgXgXgXgXgXgXgXgX$.3 b b z l k k k j j j 9 * ",
"* 9 j j j k k k k v + J.1., ) gXgXgXgXgXgXgXgXgXgXgXgXgXgXgXgXgXgXgXgXgXgXgXgXrXR.Q.gXgXgXgXgXgXgXgX%.# b v v l k k j j j j * ; ",
"9 * j j j k k k p c v 8 T O.x aXgXgXgXgXgXgXgXgXgXgXgXgXgXgXgXgXgXgXgXgXdX3X` # X  .gXgXgXgXgXgXgXgX_ 8 b v l l k k k j j j 9 * ",
"* 9 * j j j j k k l v z i m + `.gXgXgXgXgXgXgXgXgXgXgXgXgXgXgXgXgXgX9XW.r + t Q.wXgXgXgXgXgXgXgXgXeX$ c v z l k k k j j j j * * ",
"* * * j j j j k k l l v v m w $ tXgXgXgXgXgXgXgXgXgXgXgXgXgXgXtX'.T + 2 ..5XdXgXgXgXgXgXgXgXgXgXgXW.+ v v l k k k j j j * * * ; ",
"* j j ; j j j k k k k v v v n 8 e 0XgXgXgXgXgXgXgXgXgXgXdX5X .# o H '.tXgXgXgXgXgXgXgXgXgXgXgXgXuX+ c v l l k k j j j j 9 9 * * ",
"* * * * j j j j k k k l v v b n 8 # W.uXgXgXgXgXgXfXqXW.5 o 5 R.0XgXgXgXgXgXgXgXgXgXgXgXgXgXgXsXq 3 b k l k k k j j j j * * ; * ",
"* : * * j j j j j k k l l v v v n c # 8 _ W.~.~.T.s o + ` 3XsXgXgXgXgXgXgXgXgXgXgXgXgXgXgXgXtXh # b v z l k k k j j j * * * * * ",
"* * ; * * j j j j j k k k l v v v n n c 0 3 # X X p ~.eXgXgXgXgXgXgXgXgXgXgXgXgXgXgXgXgXhX<X$ $ b v z k k k j j j j j 9 * ; * * ",
"* * * * * 9 ; j j j k k l k l l v v v b n c 8 &.6XfXgXgXgXgXgXgXgXgXgXgXgXgXgXgXgXgXeX~.M o w n l l k l k j j j j j * * * * * * ",
"* * * ; * ; * ; j j 9 l k k l l v v v b v # 9XgXgXgXgXgXgXgXgXgXgXgXgXgXgXgXgXdX4X$.3 + 0 v v l l k k k k j j j j * * ; * * * * ",
"* * * * * ; : * j j 9 k j k k l k v v b o W.gXgXgXgXgXgXgXgXgXgXgXgXgXgXgX0X!.p + % c v v v l l l k k j k 9 j j * ; ; ; * * * * ",
"* & * * * * * * 9 j j j j k k k k k v 8 $ sXgXgXgXgXgXgXgXgXgXgXgXgXyX`._ $ o 0 b b v v l l l k k k k k j j j 9 * * * ; * * ; & ",
"* * * ; * * ; * 9 9 j j 9 k j k k k z . <XgXgXgXgXgXgXgXgXgXgXhX5X%.8 o 8 c b v v v v l l l k k k j j j j j * 9 ; * & ; ; & * * ",
"* * * & * * * * 9 * 9 j j 9 9 k k k @ x gXgXgXgXgXgXgXgXgX0X!.x o + w b b v v l l l l l k k k l j j j j j 9 9 * : * * * * * * * ",
"* & * * * * * * * * 9 9 j j j j j k . 0XgXgXgXgXgXgXiX<XB + o 8 v v v l v l l l l k k k k k k 9 ; ; ; ; ; ; * * * * ; ; & * * * ",
"* * * * * * * * * 9 * ; * j j j k X ' gXgXgXgXfX6X#.= X $ k v l l l l l l k l k k k l k k j j j ; : ; : * * * * * * & * ; * * & ",
"* * & * * & & * * * * * * 9 j j = . sXgXgXuX!.x X o 9 c l k l k k k k k k k k k k k j j 9 9 j j ; ; ; * * * * * * ; * ; * * * * ",
"* * * * * * * * * * * * * ; * * . 4XgX1XB O . @ k k j k k k k k k k k k k k j k k 9 j j j j j j : ; ; * ; * * * * & * & * * * * ",
"* * * * * & ; * * * * * * * * * j >.x   O 9 k j w j j j j k 9 k k j k j j j k 9 j j j j : ; ; ; ; ; ; ; * & * * & * * * & * * & ",
"& * * * * * * * & * * * * ; * 9 j X O j j ; ; j ; j j j j j k 9 9 j j j j j j j j j j ; * * * ; ; ; ; * * * * * * * * & * * * * ",
"* * & * & ; * ; ; * * * * * * * * 9 9 9 * * j j j j j j j j j j j j j j j j j j j 9 * * : * : * * * * * * * * * * * * * * * * * ",
"* * * * ; ; & & * * * = * * * * * * * * 9 * * * * 9 * j 9 ; ; j j j j * j * 9 * 9 * ; * * * * * * * * & * * & * * * * * * * & * "
};
