/* XPM */
static char *_cc938716be049359bdc8327d4835b30rXOif2vkr6shMgjg[] = {
/* columns rows colors chars-per-pixel */
"16 16 209 2 ",
"   c #000018",
".  c #00001B",
"X  c #000521",
"o  c #000722",
"O  c #000024",
"+  c #000325",
"@  c #000026",
"#  c #010227",
"$  c #000927",
"%  c #00002A",
"&  c #00032B",
"*  c #00002F",
"=  c #06082F",
"-  c #0A0A2A",
";  c #060032",
":  c #000433",
">  c #000533",
",  c #000A37",
"<  c #010E36",
"1  c #040D34",
"2  c #000D39",
"3  c #0B0F39",
"4  c #0A083E",
"5  c #011937",
"6  c #001B39",
"7  c #011C39",
"8  c #021C39",
"9  c #011C3A",
"0  c #021D3A",
"q  c #021D3B",
"w  c #061D3B",
"e  c #00193E",
"r  c #00193F",
"t  c #021D3C",
"y  c #031D3C",
"u  c #021D3D",
"i  c #011E3D",
"p  c #021F3C",
"a  c #021E3D",
"s  c #021E3E",
"d  c #041D3E",
"f  c #041C3F",
"g  c #0A1F3D",
"h  c #745821",
"j  c #0D0743",
"k  c #000E42",
"l  c #000649",
"z  c #030A4D",
"x  c #0F0C49",
"c  c #011346",
"v  c #031644",
"b  c #081346",
"n  c #021E40",
"m  c #031E40",
"M  c #021F40",
"N  c #031F40",
"B  c #021F41",
"V  c #031F41",
"C  c #021E44",
"Z  c #0D1249",
"A  c #0A144C",
"S  c #0C164F",
"D  c #001E4A",
"F  c #031F4C",
"G  c #021456",
"H  c #011C51",
"J  c #001B54",
"K  c #081459",
"L  c #00185B",
"P  c #032040",
"I  c #032041",
"U  c #032141",
"Y  c #022042",
"T  c #032042",
"R  c #032043",
"E  c #032143",
"W  c #042041",
"Q  c #042042",
"!  c #042142",
"~  c #042043",
"^  c #042145",
"/  c #042244",
"(  c #042245",
")  c #052346",
"_  c #062347",
"`  c #062646",
"'  c #032348",
"]  c #00224A",
"[  c #052349",
"{  c #062248",
"}  c #06234B",
"|  c #052448",
" . c #042548",
".. c #072448",
"X. c #06244A",
"o. c #06254B",
"O. c #07234C",
"+. c #07234D",
"@. c #07244C",
"#. c #07244D",
"$. c #04274C",
"%. c #06274C",
"&. c #07254E",
"*. c #07274F",
"=. c #08244D",
"-. c #08254E",
";. c #042C4A",
":. c #082350",
">. c #082652",
",. c #072850",
"<. c #0A2A57",
"1. c #092E56",
"2. c #06255C",
"3. c #0B2958",
"4. c #092A58",
"5. c #092C59",
"6. c #092D5A",
"7. c #0A2F5D",
"8. c #0B2E5E",
"9. c #083A52",
"0. c #0C3A5E",
"q. c #2A344F",
"w. c #242B56",
"e. c #2D3159",
"r. c #0A2161",
"t. c #323B6C",
"y. c #09445B",
"u. c #124672",
"i. c #0F507E",
"p. c #15547F",
"a. c #3C6469",
"s. c #7D6946",
"d. c #7E6C58",
"f. c #46446A",
"g. c #49496F",
"h. c #505265",
"j. c #5C6664",
"k. c #906818",
"l. c #9A7519",
"z. c #A17617",
"x. c #806F37",
"c. c #9E7C3F",
"v. c #469079",
"b. c #7B806C",
"n. c #918226",
"m. c #AE9C31",
"M. c #C49C28",
"N. c #9B8D47",
"B. c #888952",
"V. c #AAA971",
"C. c #0062A0",
"Z. c #0070AB",
"A. c #434984",
"S. c #777786",
"D. c #6E7494",
"F. c #5F67B3",
"G. c #7078A1",
"H. c #1291B0",
"J. c #2994B3",
"K. c #53948F",
"L. c #73818C",
"P. c #7A8389",
"I. c #008ECC",
"U. c #1189CC",
"Y. c #079CCC",
"T. c #1994CB",
"R. c #0292D3",
"E. c #0EA1C4",
"W. c #0DA6CA",
"Q. c #18ACC5",
"!. c #2EB8D2",
"~. c #0093E6",
"^. c #04A1E3",
"/. c #00A7F5",
"(. c #00BDFF",
"). c #0CEDFF",
"_. c #8B899E",
"`. c #8E91A9",
"'. c #9194A8",
"]. c #9295AD",
"[. c #9399B6",
"{. c #999CB3",
"}. c #9095BA",
"|. c #A2A4B8",
" X c #9192C3",
".X c #A8ACC0",
"XX c #ADAFC6",
"oX c #B3B0C4",
"OX c #8F96E1",
"+X c #B3B9E1",
"@X c #C2BCC7",
"#X c #BEC3FF",
"$X c #CBC6CA",
"%X c #C5C7D3",
"&X c #C3C7D5",
"*X c #D0CDD6",
"=X c #CFD0DB",
"-X c #D3D6DA",
";X c #D6DAE7",
":X c #DFDBEA",
">X c #D0D7FF",
",X c #E6E5EC",
"<X c #F0E9EA",
"1X c #EFEFF3",
"2X c #F1F3F7",
"3X c #FAFDFF",
"4X c #FFFFFD",
"5X c #FCFDFF",
"6X c white",
/* pixels */
"9 9 9 9 y I I B I W I I o o ;.5 ",
"9 9 y W ( [ &.&.>.,.1 . 9.Q.y.$ ",
"9 y W { &.>.4.5.b ; 0.E.).H.. 9 ",
"9 I _ -.4.7.A j u.W.(.R.a.- e 9 ",
"y _ -.5.A x p.W./.U.j.M.c.z  .y ",
"I { -.4 p.I.~.J.B.z.m.V.r.H _ B ",
"I @.3 Z.~.K.x.l.N.P.+XF.l 1.[ ( ",
"( > C.!.k.h b. X#X6X:XG 2.4.&.W ",
"p F T.n.d.OX3X6X&X[.A.K J 6.+.V ",
"f L v.s.>X6X{.G.}.;X6X,Xt.c -.C ",
"W v g L.6X1XXX6X6X|.=X6X.X% [ I ",
"y _ k Z oX2X-X`.D.].6X6Xg., _ y ",
"9 I $.' * w.'.%X6X6X@Xf.> $.I 9 ",
"9 9 W C & *X6X<X_.e.> > $.W 9 9 ",
"9 9 y % S.$Xh.< @ 2 ' [ V p 9 9 ",
"9 9 8 p q.@ O e  ._ V 9 y 9 9 9 "
};
