/* XPM */
static char *_b4482924cd8466c91b60e0c57132a3aEyHxWPh8leMi0RII[] = {
/* columns rows colors chars-per-pixel */
"32 32 200 2 ",
"   c #00000F",
".  c #000014",
"X  c #00001D",
"o  c #000127",
"O  c #010A22",
"+  c #01012B",
"@  c #020B2C",
"#  c #00102D",
"$  c #030334",
"%  c #030B35",
"&  c #00063D",
"*  c #09063C",
"=  c #000C3C",
"-  c #011232",
";  c #021936",
":  c #04153A",
">  c #021D3C",
",  c #1F1531",
"<  c #24193A",
"1  c #04233F",
"2  c #411A33",
"3  c #6A4702",
"4  c #554B24",
"5  c #614D35",
"6  c #000B42",
"7  c #0C0A43",
"8  c #00014E",
"9  c #080849",
"0  c #15014A",
"q  c #031542",
"w  c #031F41",
"e  c #0A1D4A",
"r  c #041949",
"t  c #000054",
"y  c #00035D",
"u  c #000D59",
"i  c #060C5B",
"p  c #021C52",
"a  c #071A55",
"s  c #140C5D",
"d  c #042144",
"f  c #06234A",
"g  c #08254E",
"h  c #062C4F",
"j  c #08284F",
"k  c #092653",
"l  c #092A55",
"z  c #0E235A",
"x  c #0B2B5B",
"c  c #032755",
"v  c #142C4F",
"b  c #2B2949",
"n  c #243640",
"m  c #242C56",
"M  c #27265F",
"N  c #22305D",
"B  c #2D3B5C",
"V  c #2F3259",
"C  c #32325F",
"Z  c #000D62",
"A  c #000069",
"S  c #010C7C",
"D  c #000270",
"F  c #00167D",
"G  c #0D2E62",
"H  c #012762",
"J  c #112B66",
"K  c #0E3265",
"L  c #0F346A",
"P  c #003169",
"I  c #123267",
"U  c #263866",
"Y  c #393B64",
"T  c #232E7F",
"R  c #293677",
"E  c #353E74",
"W  c #4A374F",
"Q  c #3E445C",
"!  c #39446A",
"~  c #4B4943",
"^  c #5E5D4B",
"/  c #625252",
"(  c #7F7C4C",
")  c #76634D",
"_  c #424868",
"`  c #464C77",
"'  c #4C5276",
"]  c #54597C",
"[  c #595C7B",
"{  c #5F6077",
"}  c #8E7E55",
"|  c #857547",
" . c #9E8E3B",
".. c #898939",
"X. c #D5A816",
"o. c #E5B115",
"O. c #DBD93C",
"+. c #FFF829",
"@. c #F4EB3E",
"#. c #FFFD3B",
"$. c #848040",
"%. c #888E5B",
"&. c #A09C4B",
"*. c #A59852",
"=. c #A1A144",
"-. c #BEB24D",
";. c #B0A948",
":. c #CDC156",
">. c #D4C746",
",. c #E3D558",
"<. c #ECE042",
"1. c #FFFA48",
"2. c #FFFF51",
"3. c #FFFC5B",
"4. c #F2E247",
"5. c #FFFF60",
"6. c #091A88",
"7. c #00268F",
"8. c #002594",
"9. c #303A86",
"0. c #343B9F",
"q. c #2336A5",
"w. c #004697",
"e. c #11588B",
"r. c #3B4D82",
"t. c #0F6F93",
"y. c #116190",
"u. c #0F7198",
"i. c #11729D",
"p. c #0D6389",
"a. c #0044A4",
"s. c #005CAE",
"d. c #005EB6",
"f. c #3E4AAB",
"g. c #0065A9",
"h. c #1474A4",
"j. c #1478A9",
"k. c #007EB2",
"l. c #434E84",
"z. c #51598E",
"x. c #5C6996",
"c. c #656991",
"v. c #61719F",
"b. c #737696",
"n. c #4156A5",
"m. c #5D6ABD",
"M. c #6066B4",
"N. c #777FA8",
"B. c #006AC1",
"V. c #1486AA",
"C. c #0E8DB5",
"Z. c #46928E",
"A. c #7B83AC",
"S. c #7DC291",
"D. c #0399D4",
"F. c #0E97C6",
"G. c #12B1D9",
"H. c #0FA9D5",
"J. c #19BCE4",
"K. c #15BFE3",
"L. c #04BEFF",
"P. c #18C4EA",
"I. c #1AD0EE",
"U. c #1AD1F5",
"Y. c #1CD6FF",
"T. c #1CDBFE",
"R. c #1BC8F2",
"E. c #1DECFF",
"W. c #1CE0FF",
"Q. c #1CF5FF",
"!. c #1FFFFF",
"~. c #20F8FF",
"^. c #868699",
"/. c #8F92A2",
"(. c #9898AC",
"). c #A09BA6",
"_. c #9BA1BF",
"`. c #ACADBC",
"'. c #B6B3BB",
"]. c #828CCD",
"[. c #8D98C7",
"{. c #A7ABC2",
"}. c #B1ADC3",
"|. c #BCBBCA",
" X c #A5ABD3",
".X c #B6B9D2",
"XX c #C4C5D5",
"oX c #CDCBD5",
"OX c #C0C5DF",
"+X c #D0CCD8",
"@X c #D2D4DC",
"#X c #DADCE6",
"$X c #C7CAE5",
"%X c #EAE9ED",
"&X c #E3E3EB",
"*X c #E7E9FA",
"=X c #EDF1F6",
"-X c #FFFFFF",
";X c #F7F7FB",
":X c #F1EAEA",
/* pixels */
"> > > > ; > ; 1 > w > w d 1 w w d d w d d > > > 1 > 1 1 @ 1 ; 1 ",
"> > > ; > > > > > w d w d w f w d d d d d d d > > d O   h d ; ; ",
"; ; > > > > > 1 w f w f g f f f f f f f d d d f # . ; C.V.O ; 1 ",
"> > > > > > w d w f g f g g g k g g g g g j : X w t.R.E.1 O 1 ; ",
"> > > > w d d f f g g k k k l l l l l z q + f u.J.Y.~.p.  d > ; ",
"> > > > d d f f g g c l l z x l x x e $ g i.J.T.Y.U.F.# ; > > > ",
"> > > d d f f g l l z x x x J K z * z i.J.W.T.P.k.P @ : f > 1 ; ",
"> > w d f f g k l l x G G L z 7 G h.J.E.T.G.g.i , 5 d f d > 1 > ",
"> w d f f g g l x x G L z 9 I h.K.E.T.F.w.y < | 3.%.8 f d d > > ",
"> > d f g g l l G K z 9 J h.P.Q.U.C.7.y W *.3.3.,.t g f f d d > ",
"> d f f g l v K z 7 J j.U.Q.P.g.6.Z ^ :.2.2.4.&.B u l g f f d > ",
"1 > f f k x x * z j.Y.~.H.a.S M %.4.1.2.=.5 Y 9.u G l j f d d w ",
"w f f g l k * e.T.E.F.8.D W -.#.#.>.^ V T m.*Xx.r x z g g f d w ",
"w w f k k $ j.~.D.F s ) <.#.4.| M F n. X-X-XXX6 P G l l g f d d ",
"d f f l $ y.~.s.0  .#.#.=.C S q.].*X-X-X-X-XR u I G l l g f d d ",
"> f f : k E.B.2 +.O.~ A 6.m.$X-X-X-X-X-X-X_.8 L J x z l k f d d ",
"> f g $ k.R.b +.$.A 0. X;X-X-X-X-X-X-XXXx.t u L L x z l g f f w ",
"d d d % G.d.o...A .X-X-X-X-X-X-X&XA.l.R l.v.r.9 p K x l g f d d ",
"1 f f % D.Z.X.t OX-X-X-X-X-X{.z.T z.{.;X-X-X-X}.a a x g g f d d ",
"> e f + s.S.3 n.-X-X-X#Xx.E ` N.&X-X-X-X-X-X-X-X}.6 l k g f d w ",
"1 d f e a Z.4 [.-X-X-X{.` XX-X-X-X-X-X-X;X-X-X-X-XU q l f f w w ",
"> w d g : H n (.-X-X-X-X-X-X-X-X-X-X|.` ` ;X-X-X-XU 6 g f d w > ",
"> > d f j e 6 m ;X-X-X-X-X-X-X#Xb.! Y c.@X-X-X-XoX& f g f d d > ",
"> 1 d d f f l & C |.-X-X=X(.' M ] `.-X-X-X-X-X-XV & k f d d > w ",
"> d > d f f g l = 6 U m m _ ^.%X-X-X-X-X-X-XoXY $ h f d d w > > ",
"> > 1 d d f f g l c + [ oX-X-X-X-X-X-X-X`.[ = & h g f d d > > > ",
"> > > > d d f f l + ' -X-X-X-X-X-XoXb.m $ $ r h f f d d > 1 > > ",
"; > > > > d d f : o &X-X-X-X%X(._ & + = c k g g f d d > > ; > > ",
"> > > ; > > d f . /.-X-X'.{ q + % f l g f f f d d d > > > > ; > ",
"> ; > > > > d @ B %X^.b o o q f f f f f f d w d d > > 1 > > > > ",
"; > > > > ; > ; B n . @ d f d f d d w d w d d > > > > ; > > ; > ",
"> > ; > > > > 1 - % d 1 d d d w d d w d 1 > > > > > > ; > ; > > "
};
